# File created by Blade
# Date/Time:  Wed Jan 21 15:15:22 2015
# Frame Rate: 120.000 fps
#------------------------------------------------------
:FULLY-SPECIFIED
:DEGREES
491
root 17.537808 36.261471 -17.892389 104.166961 -76.264074 -86.497510
Spine -21.992827 -6.936278 19.099637
Head 9.415636 7.776806 1.714595
LeftShoulder -12.549767 -22.248480 0.125386
LeftArm -20.038582 7.324791 -64.563411
LeftForeArm 1.161347 -0.000000 8.333448
LeftHand -1.056703 -0.000000 -1.918113
LeftHandThumb1 -26.253704 0.000000 33.147579
RightShoulder -15.332305 -18.070029 6.226476
RightArm -8.329025 7.643252 60.354711
RightForeArm -11.837928 -0.000000 11.124509
RightHand -0.790122 -0.000000 19.149401
RightHandThumb1 -24.326973 -0.000000 -32.862282
LeftUpLeg -12.425255 3.374263 1.961978
LeftLeg -4.831198 -0.000000 0.000000
LeftFoot -18.597605 26.843506 -7.784590
LeftToeBase 21.718379 -0.000000 -0.000000
RightUpLeg -12.449885 -8.255553 -17.595152
RightLeg 141.069569 -0.000000 -0.000000
RightFoot 10.697086 -31.486505 -10.208768
RightToeBase 24.978428 -0.000000 -0.000000
492
root 17.525876 36.256511 -17.884652 103.769502 -76.415651 -86.042276
Spine -22.061793 -7.005818 18.853971
Head 9.376291 7.736267 1.756835
LeftShoulder -12.622687 -22.227890 0.120322
LeftArm -19.898913 7.327150 -64.456038
LeftForeArm 1.181670 -0.000000 8.395458
LeftHand -1.064925 -0.000000 -1.887218
LeftHandThumb1 -26.253704 0.000000 33.147579
RightShoulder -15.437000 -18.110435 6.280113
RightArm -8.395041 7.608837 60.583772
RightForeArm -12.119639 -0.000000 11.107107
RightHand -1.033258 0.000000 18.957101
RightHandThumb1 -24.326973 -0.000000 -32.862282
LeftUpLeg -12.449558 3.461777 1.791117
LeftLeg -4.873569 -0.000000 0.000000
LeftFoot -18.558546 26.566596 -7.911917
LeftToeBase 21.850981 -0.000000 -0.000000
RightUpLeg -12.134012 -8.410342 -17.339400
RightLeg 141.012648 -0.000000 -0.000000
RightFoot 10.439499 -31.916881 -9.702206
RightToeBase 24.859581 -0.000000 -0.000000
493
root 17.515327 36.252698 -17.876605 103.267452 -76.567320 -85.466312
Spine -22.162979 -7.102268 18.617327
Head 9.347007 7.621726 1.782423
LeftShoulder -12.668907 -22.227301 0.109502
LeftArm -19.799079 7.259902 -64.333146
LeftForeArm 1.159619 0.000000 8.429699
LeftHand -1.041583 0.000000 -1.854531
LeftHandThumb1 -26.253704 0.000000 33.147579
RightShoulder -15.517575 -18.168104 6.343668
RightArm -8.457881 7.684577 60.784509
RightForeArm -12.444496 0.000000 11.010081
RightHand -1.099792 -0.000000 18.685649
RightHandThumb1 -24.326973 -0.000000 -32.862282
LeftUpLeg -12.501260 3.520063 1.621041
LeftLeg -4.903171 -0.000000 0.000000
LeftFoot -18.571200 26.291968 -8.102041
LeftToeBase 22.164836 -0.000000 -0.000000
RightUpLeg -11.775230 -8.531262 -17.054207
RightLeg 140.936355 -0.000000 -0.000000
RightFoot 10.307052 -31.932658 -9.920426
RightToeBase 25.372888 -0.000000 -0.000000
494
root 17.502359 36.247929 -17.868392 102.700800 -76.707826 -84.831951
Spine -22.255486 -7.200637 18.401009
Head 9.302264 7.532479 1.784165
LeftShoulder -12.708016 -22.253267 0.119506
LeftArm -19.741188 7.187135 -64.255385
LeftForeArm 1.207629 -0.000000 8.453189
LeftHand -1.046602 -0.000000 -1.756828
LeftHandThumb1 -26.253704 0.000000 33.147579
RightShoulder -15.633986 -18.231155 6.414034
RightArm -8.534873 7.739701 60.973307
RightForeArm -12.745101 -0.000000 11.041329
RightHand -1.378877 -0.000000 18.623662
RightHandThumb1 -24.326973 -0.000000 -32.862282
LeftUpLeg -12.545748 3.542254 1.470692
LeftLeg -4.918078 -0.000000 0.000000
LeftFoot -18.559480 26.041718 -8.183440
LeftToeBase 22.381590 -0.000000 -0.000000
RightUpLeg -11.431406 -8.671987 -16.768698
RightLeg 140.834947 -0.000000 -0.000000
RightFoot 10.101631 -32.211118 -9.616610
RightToeBase 24.681972 -0.000000 -0.000000
495
root 17.491305 36.243401 -17.861642 102.028810 -76.859617 -84.070704
Spine -22.378355 -7.316015 18.171049
Head 9.275587 7.488383 1.832314
LeftShoulder -12.753982 -22.257439 0.138667
LeftArm -19.645858 7.135812 -64.200658
LeftForeArm 1.233441 -0.000000 8.414000
LeftHand -0.989092 -0.000000 -1.714418
LeftHandThumb1 -26.253704 0.000000 33.147579
RightShoulder -15.785742 -18.304711 6.506949
RightArm -8.585366 7.910379 61.142334
RightForeArm -13.000844 -0.000000 10.989318
RightHand -1.518394 0.000000 18.563439
RightHandThumb1 -24.326973 -0.000000 -32.862282
LeftUpLeg -12.623544 3.549931 1.310379
LeftLeg -4.913750 -0.000000 0.000000
LeftFoot -18.570776 25.778289 -8.330472
LeftToeBase 22.682287 -0.000000 -0.000000
RightUpLeg -11.092333 -8.927711 -16.485170
RightLeg 140.787979 -0.000000 -0.000000
RightFoot 9.986120 -32.503676 -9.491424
RightToeBase 24.986323 -0.000000 -0.000000
496
root 17.479603 36.238317 -17.853424 101.415499 -77.005283 -83.363888
Spine -22.502328 -7.424486 17.959961
Head 9.231998 7.422309 1.836982
LeftShoulder -12.819854 -22.220590 0.129917
LeftArm -19.492230 7.136028 -64.146093
LeftForeArm 1.164815 -0.000000 8.358979
LeftHand -1.085543 0.000000 -1.717250
LeftHandThumb1 -26.253704 0.000000 33.147579
RightShoulder -15.909799 -18.371623 6.591088
RightArm -8.624591 7.719800 61.332684
RightForeArm -12.954244 -0.000000 10.871749
RightHand -1.601972 -0.000000 18.529798
RightHandThumb1 -24.326973 -0.000000 -32.862282
LeftUpLeg -12.691942 3.591065 1.137270
LeftLeg -4.938448 -0.000000 0.000000
LeftFoot -18.562536 25.521982 -8.464131
LeftToeBase 22.871730 -0.000000 -0.000000
RightUpLeg -10.770780 -9.121875 -16.201200
RightLeg 140.718778 -0.000000 -0.000000
RightFoot 9.838936 -32.568323 -9.294690
RightToeBase 24.926312 -0.000000 -0.000000
497
root 17.470871 36.234095 -17.849009 100.750380 -77.140602 -82.584696
Spine -22.645804 -7.545599 17.755323
Head 9.193337 7.355502 1.829257
LeftShoulder -12.879009 -22.217300 0.145685
LeftArm -19.405187 7.090905 -64.100335
LeftForeArm 1.117703 -0.000000 8.358133
LeftHand -0.877113 -0.000000 -1.789964
LeftHandThumb1 -26.253704 0.000000 33.147579
RightShoulder -16.000093 -18.374252 6.659020
RightArm -8.811598 7.766873 61.503497
RightForeArm -13.289105 -0.000000 10.993473
RightHand -1.880570 -0.000000 18.325068
RightHandThumb1 -24.326973 -0.000000 -32.862282
LeftUpLeg -12.804229 3.612374 0.979339
LeftLeg -4.923307 -0.000000 0.000000
LeftFoot -18.590435 25.257309 -8.593415
LeftToeBase 23.139432 -0.000000 -0.000000
RightUpLeg -10.457632 -9.369302 -15.895767
RightLeg 140.646841 -0.000000 -0.000000
RightFoot 9.638417 -32.775275 -9.123972
RightToeBase 25.397057 -0.000000 -0.000000
498
root 17.455594 36.227906 -17.843288 99.984936 -77.264369 -81.743606
Spine -22.766077 -7.694321 17.578730
Head 9.176164 7.359512 1.846878
LeftShoulder -12.939951 -22.222170 0.159700
LeftArm -19.340986 7.027288 -64.064074
LeftForeArm 1.101751 -0.000000 8.347098
LeftHand -0.872941 -0.000000 -1.796913
LeftHandThumb1 -26.253704 0.000000 33.147579
RightShoulder -16.109126 -18.465928 6.717144
RightArm -8.862835 7.819548 61.681510
RightForeArm -13.352913 -0.000000 10.905109
RightHand -1.900202 -0.000000 18.496855
RightHandThumb1 -24.326973 -0.000000 -32.862282
LeftUpLeg -12.846862 3.624080 0.832924
LeftLeg -4.941334 -0.000000 0.000000
LeftFoot -18.601001 24.997550 -8.715192
LeftToeBase 23.334560 -0.000000 -0.000000
RightUpLeg -10.099414 -9.615061 -15.590367
RightLeg 140.604417 -0.000000 -0.000000
RightFoot 9.677562 -32.962068 -9.195295
RightToeBase 24.863298 -0.000000 -0.000000
499
root 17.443918 36.222411 -17.838088 99.151649 -77.380032 -80.822460
Spine -22.885381 -7.845230 17.403635
Head 9.132966 7.310685 1.858983
LeftShoulder -12.967345 -22.256265 0.160078
LeftArm -19.305569 7.004839 -64.035313
LeftForeArm 1.071407 0.000000 8.306926
LeftHand -0.822776 -0.000000 -1.863321
LeftHandThumb1 -26.253704 0.000000 33.147579
RightShoulder -16.242481 -18.563886 6.788792
RightArm -8.854474 7.712975 61.892294
RightForeArm -13.375466 -0.000000 10.826821
RightHand -2.082569 0.000000 18.393589
RightHandThumb1 -24.326973 -0.000000 -32.862282
LeftUpLeg -12.911454 3.639096 0.687438
LeftLeg -4.960226 -0.000000 0.000000
LeftFoot -18.614102 24.726235 -8.821881
LeftToeBase 23.556404 -0.000000 -0.000000
RightUpLeg -9.760444 -9.833619 -15.290377
RightLeg 140.485323 -0.000000 -0.000000
RightFoot 9.702208 -33.210813 -8.846646
RightToeBase 24.107393 -0.000000 -0.000000
500
root 17.431139 36.216561 -17.835511 98.285650 -77.490361 -79.875461
Spine -22.998961 -7.999130 17.226557
Head 9.098996 7.262760 1.857070
LeftShoulder -13.005338 -22.268060 0.158786
LeftArm -19.221734 7.049904 -64.028585
LeftForeArm 1.046298 -0.000000 8.224731
LeftHand -0.923623 0.000000 -1.823779
LeftHandThumb1 -26.253704 0.000000 33.147579
RightShoulder -16.373391 -18.650199 6.860560
RightArm -8.905075 7.753646 62.097141
RightForeArm -13.791914 -0.000000 10.875709
RightHand -2.364346 0.000000 18.376446
RightHandThumb1 -24.326973 -0.000000 -32.862282
LeftUpLeg -12.966536 3.640961 0.560299
LeftLeg -4.974994 -0.000000 0.000000
LeftFoot -18.641038 24.414681 -8.989926
LeftToeBase 23.825737 -0.000000 -0.000000
RightUpLeg -9.404298 -10.115956 -14.974222
RightLeg 140.408586 -0.000000 -0.000000
RightFoot 9.776121 -33.404079 -8.726764
RightToeBase 23.828627 -0.000000 -0.000000
501
root 17.418986 36.211543 -17.831588 97.555744 -77.592412 -79.060470
Spine -23.119557 -8.142618 17.063734
Head 9.103556 7.272415 1.887882
LeftShoulder -13.057181 -22.261159 0.131402
LeftArm -19.128324 7.013560 -63.981672
LeftForeArm 0.901151 -0.000000 8.158361
LeftHand -0.980818 0.000000 -1.877697
LeftHandThumb1 -26.253704 0.000000 33.147579
RightShoulder -16.473074 -18.673715 6.884081
RightArm -8.927942 7.487222 62.317919
RightForeArm -13.796703 -0.000000 10.665433
RightHand -2.399863 -0.000000 18.127512
RightHandThumb1 -24.326973 -0.000000 -32.862282
LeftUpLeg -13.004506 3.606247 0.448256
LeftLeg -5.023964 -0.000000 0.000000
LeftFoot -18.729958 24.187973 -9.183954
LeftToeBase 24.287951 -0.000000 -0.000000
RightUpLeg -9.071642 -10.333823 -14.656182
RightLeg 140.341757 -0.000000 -0.000000
RightFoot 10.062271 -33.471036 -9.209900
RightToeBase 24.386785 -0.000000 -0.000000
502
root 17.404895 36.206752 -17.826977 96.893306 -77.702547 -78.315794
Spine -23.243686 -8.294760 16.901259
Head 9.094895 7.312288 1.920071
LeftShoulder -13.144926 -22.254271 0.111421
LeftArm -19.024908 7.035980 -63.948117
LeftForeArm 0.821994 -0.000000 8.057132
LeftHand -0.840906 0.000000 -1.841392
LeftHandThumb1 -26.253704 0.000000 33.147579
RightShoulder -16.568517 -18.807220 6.909354
RightArm -8.878450 7.617421 62.550011
RightForeArm -14.304736 -0.000000 10.558881
RightHand -2.536576 -0.000000 17.889950
RightHandThumb1 -24.326973 -0.000000 -32.862282
LeftUpLeg -13.021576 3.572000 0.328897
LeftLeg -5.091390 -0.000000 0.000000
LeftFoot -18.734453 24.011073 -9.237635
LeftToeBase 24.714035 -0.000000 -0.000000
RightUpLeg -8.752456 -10.556847 -14.348858
RightLeg 140.260762 -0.000000 -0.000000
RightFoot 10.115139 -33.660562 -8.972860
RightToeBase 24.156666 -0.000000 -0.000000
503
root 17.389720 36.202813 -17.825100 96.062033 -77.800068 -77.421915
Spine -23.332278 -8.468820 16.718924
Head 9.072997 7.296100 1.997199
LeftShoulder -13.233704 -22.270777 0.118965
LeftArm -18.915070 7.014931 -63.931673
LeftForeArm 0.961138 -0.000000 7.947664
LeftHand -0.986508 -0.000000 -1.930823
LeftHandThumb1 -26.253704 0.000000 33.147579
RightShoulder -16.631583 -18.847159 7.013286
RightArm -9.015346 7.493506 62.701347
RightForeArm -14.419119 0.000000 10.587933
RightHand -2.679959 -0.000000 17.744051
RightHandThumb1 -24.326973 -0.000000 -32.862282
LeftUpLeg -13.074795 3.660151 0.186861
LeftLeg -5.060988 -0.000000 0.000000
LeftFoot -18.818037 23.646290 -9.369416
LeftToeBase 25.204194 -0.000000 -0.000000
RightUpLeg -8.395638 -10.820582 -14.015844
RightLeg 140.146463 -0.000000 -0.000000
RightFoot 10.158255 -33.923043 -8.584862
RightToeBase 24.061554 -0.000000 -0.000000
